<mxfile host="app.diagrams.net" agent="Mozilla/5.0 (Windows NT 10.0; Win64; x64) AppleWebKit/537.36 (KHTML, like Gecko) Chrome/129.0.0.0 Safari/537.36" version="24.8.0">
  <diagram id="C5RBs43oDa-KdzZeNtuy" name="Page-1">
    <mxGraphModel dx="2336" dy="785" grid="1" gridSize="10" guides="1" tooltips="1" connect="1" arrows="1" fold="1" page="1" pageScale="1" pageWidth="827" pageHeight="1169" math="0" shadow="0">
      <root>
        <mxCell id="WIyWlLk6GJQsqaUBKTNV-0" />
        <mxCell id="WIyWlLk6GJQsqaUBKTNV-1" parent="WIyWlLk6GJQsqaUBKTNV-0" />
        <mxCell id="jc_-JY6niaTybWbx3vFI-28" style="edgeStyle=orthogonalEdgeStyle;rounded=0;orthogonalLoop=1;jettySize=auto;html=1;" edge="1" parent="WIyWlLk6GJQsqaUBKTNV-1" source="106sUVybt3kD7jMUcezY-0" target="jc_-JY6niaTybWbx3vFI-1">
          <mxGeometry relative="1" as="geometry" />
        </mxCell>
        <mxCell id="106sUVybt3kD7jMUcezY-0" value="Spustenie programu" style="rounded=0;whiteSpace=wrap;html=1;arcSize=12;" parent="WIyWlLk6GJQsqaUBKTNV-1" vertex="1">
          <mxGeometry x="347" y="10" width="120" height="60" as="geometry" />
        </mxCell>
        <mxCell id="jc_-JY6niaTybWbx3vFI-29" style="rounded=0;orthogonalLoop=1;jettySize=auto;html=1;entryX=0.5;entryY=0;entryDx=0;entryDy=0;" edge="1" parent="WIyWlLk6GJQsqaUBKTNV-1" source="jc_-JY6niaTybWbx3vFI-1" target="jc_-JY6niaTybWbx3vFI-36">
          <mxGeometry relative="1" as="geometry">
            <mxPoint x="233" y="220" as="targetPoint" />
          </mxGeometry>
        </mxCell>
        <mxCell id="jc_-JY6niaTybWbx3vFI-30" style="rounded=0;orthogonalLoop=1;jettySize=auto;html=1;entryX=0.5;entryY=0;entryDx=0;entryDy=0;" edge="1" parent="WIyWlLk6GJQsqaUBKTNV-1" source="jc_-JY6niaTybWbx3vFI-1" target="jc_-JY6niaTybWbx3vFI-37">
          <mxGeometry relative="1" as="geometry">
            <mxPoint x="590" y="220" as="targetPoint" />
          </mxGeometry>
        </mxCell>
        <mxCell id="jc_-JY6niaTybWbx3vFI-1" value="Inicializacia spojenia" style="rounded=0;whiteSpace=wrap;html=1;arcSize=12;" vertex="1" parent="WIyWlLk6GJQsqaUBKTNV-1">
          <mxGeometry x="347" y="120" width="120" height="60" as="geometry" />
        </mxCell>
        <mxCell id="jc_-JY6niaTybWbx3vFI-46" style="edgeStyle=orthogonalEdgeStyle;rounded=0;orthogonalLoop=1;jettySize=auto;html=1;entryX=0.5;entryY=0;entryDx=0;entryDy=0;" edge="1" parent="WIyWlLk6GJQsqaUBKTNV-1" source="jc_-JY6niaTybWbx3vFI-8" target="jc_-JY6niaTybWbx3vFI-9">
          <mxGeometry relative="1" as="geometry" />
        </mxCell>
        <mxCell id="jc_-JY6niaTybWbx3vFI-8" value="Spojenie nadviazané" style="rounded=0;whiteSpace=wrap;html=1;arcSize=12;" vertex="1" parent="WIyWlLk6GJQsqaUBKTNV-1">
          <mxGeometry x="353" y="510" width="120" height="60" as="geometry" />
        </mxCell>
        <mxCell id="jc_-JY6niaTybWbx3vFI-47" style="rounded=0;orthogonalLoop=1;jettySize=auto;html=1;entryX=1;entryY=0;entryDx=0;entryDy=0;" edge="1" parent="WIyWlLk6GJQsqaUBKTNV-1" source="jc_-JY6niaTybWbx3vFI-9" target="jc_-JY6niaTybWbx3vFI-10">
          <mxGeometry relative="1" as="geometry" />
        </mxCell>
        <mxCell id="jc_-JY6niaTybWbx3vFI-9" value="Chatové okno" style="rounded=0;whiteSpace=wrap;html=1;arcSize=12;" vertex="1" parent="WIyWlLk6GJQsqaUBKTNV-1">
          <mxGeometry x="353" y="650" width="120" height="60" as="geometry" />
        </mxCell>
        <mxCell id="jc_-JY6niaTybWbx3vFI-10" value="Odosielanie" style="rounded=0;whiteSpace=wrap;html=1;arcSize=12;" vertex="1" parent="WIyWlLk6GJQsqaUBKTNV-1">
          <mxGeometry x="13" y="750" width="120" height="60" as="geometry" />
        </mxCell>
        <mxCell id="jc_-JY6niaTybWbx3vFI-11" value="Prijímanie" style="rounded=0;whiteSpace=wrap;html=1;arcSize=12;" vertex="1" parent="WIyWlLk6GJQsqaUBKTNV-1">
          <mxGeometry x="720" y="760" width="120" height="60" as="geometry" />
        </mxCell>
        <mxCell id="jc_-JY6niaTybWbx3vFI-12" value="Správa" style="rounded=0;whiteSpace=wrap;html=1;arcSize=12;" vertex="1" parent="WIyWlLk6GJQsqaUBKTNV-1">
          <mxGeometry x="-137" y="870" width="120" height="60" as="geometry" />
        </mxCell>
        <mxCell id="jc_-JY6niaTybWbx3vFI-14" value="Súbor" style="rounded=0;whiteSpace=wrap;html=1;arcSize=12;" vertex="1" parent="WIyWlLk6GJQsqaUBKTNV-1">
          <mxGeometry x="163" y="870" width="120" height="60" as="geometry" />
        </mxCell>
        <mxCell id="jc_-JY6niaTybWbx3vFI-58" style="edgeStyle=orthogonalEdgeStyle;rounded=0;orthogonalLoop=1;jettySize=auto;html=1;entryX=0.5;entryY=0;entryDx=0;entryDy=0;" edge="1" parent="WIyWlLk6GJQsqaUBKTNV-1" source="jc_-JY6niaTybWbx3vFI-15" target="jc_-JY6niaTybWbx3vFI-17">
          <mxGeometry relative="1" as="geometry" />
        </mxCell>
        <mxCell id="jc_-JY6niaTybWbx3vFI-59" value="&lt;font style=&quot;font-size: 20px;&quot;&gt;Nie&lt;/font&gt;" style="edgeLabel;html=1;align=center;verticalAlign=middle;resizable=0;points=[];" vertex="1" connectable="0" parent="jc_-JY6niaTybWbx3vFI-58">
          <mxGeometry x="-0.2662" y="1" relative="1" as="geometry">
            <mxPoint x="-24" y="19" as="offset" />
          </mxGeometry>
        </mxCell>
        <mxCell id="jc_-JY6niaTybWbx3vFI-15" value="Fragmentácia?" style="rhombus;whiteSpace=wrap;html=1;arcSize=12;" vertex="1" parent="WIyWlLk6GJQsqaUBKTNV-1">
          <mxGeometry x="23" y="980" width="100" height="100" as="geometry" />
        </mxCell>
        <mxCell id="jc_-JY6niaTybWbx3vFI-86" style="rounded=0;orthogonalLoop=1;jettySize=auto;html=1;entryX=1;entryY=0;entryDx=0;entryDy=0;" edge="1" parent="WIyWlLk6GJQsqaUBKTNV-1" source="jc_-JY6niaTybWbx3vFI-16" target="jc_-JY6niaTybWbx3vFI-17">
          <mxGeometry relative="1" as="geometry" />
        </mxCell>
        <mxCell id="jc_-JY6niaTybWbx3vFI-16" value="Rozdelenie na fragmenty" style="rounded=0;whiteSpace=wrap;html=1;arcSize=12;" vertex="1" parent="WIyWlLk6GJQsqaUBKTNV-1">
          <mxGeometry x="163" y="1140" width="120" height="60" as="geometry" />
        </mxCell>
        <mxCell id="jc_-JY6niaTybWbx3vFI-17" value="Odoslanie N fragmentov" style="rounded=0;whiteSpace=wrap;html=1;arcSize=12;" vertex="1" parent="WIyWlLk6GJQsqaUBKTNV-1">
          <mxGeometry x="13" y="1270" width="120" height="60" as="geometry" />
        </mxCell>
        <mxCell id="jc_-JY6niaTybWbx3vFI-66" style="edgeStyle=orthogonalEdgeStyle;rounded=0;orthogonalLoop=1;jettySize=auto;html=1;entryX=0.5;entryY=0;entryDx=0;entryDy=0;" edge="1" parent="WIyWlLk6GJQsqaUBKTNV-1" source="jc_-JY6niaTybWbx3vFI-18" target="jc_-JY6niaTybWbx3vFI-20">
          <mxGeometry relative="1" as="geometry" />
        </mxCell>
        <mxCell id="jc_-JY6niaTybWbx3vFI-67" value="&lt;font style=&quot;font-size: 20px;&quot;&gt;Áno&lt;/font&gt;" style="edgeLabel;html=1;align=center;verticalAlign=middle;resizable=0;points=[];" vertex="1" connectable="0" parent="jc_-JY6niaTybWbx3vFI-66">
          <mxGeometry x="-0.1878" y="-2" relative="1" as="geometry">
            <mxPoint x="-21" y="13" as="offset" />
          </mxGeometry>
        </mxCell>
        <mxCell id="jc_-JY6niaTybWbx3vFI-18" value="ACK?" style="rhombus;whiteSpace=wrap;html=1;" vertex="1" parent="WIyWlLk6GJQsqaUBKTNV-1">
          <mxGeometry x="33" y="1400" width="80" height="80" as="geometry" />
        </mxCell>
        <mxCell id="jc_-JY6niaTybWbx3vFI-22" style="edgeStyle=orthogonalEdgeStyle;rounded=0;orthogonalLoop=1;jettySize=auto;html=1;endArrow=none;endFill=0;" edge="1" parent="WIyWlLk6GJQsqaUBKTNV-1" source="jc_-JY6niaTybWbx3vFI-19">
          <mxGeometry relative="1" as="geometry">
            <mxPoint x="223" y="1440" as="targetPoint" />
          </mxGeometry>
        </mxCell>
        <mxCell id="jc_-JY6niaTybWbx3vFI-19" value="ARQ metóda a preposlanie" style="rounded=0;whiteSpace=wrap;html=1;arcSize=12;" vertex="1" parent="WIyWlLk6GJQsqaUBKTNV-1">
          <mxGeometry x="163" y="1540" width="120" height="60" as="geometry" />
        </mxCell>
        <mxCell id="jc_-JY6niaTybWbx3vFI-21" style="edgeStyle=orthogonalEdgeStyle;rounded=0;orthogonalLoop=1;jettySize=auto;html=1;entryX=1;entryY=0.5;entryDx=0;entryDy=0;" edge="1" parent="WIyWlLk6GJQsqaUBKTNV-1" source="jc_-JY6niaTybWbx3vFI-20" target="jc_-JY6niaTybWbx3vFI-18">
          <mxGeometry relative="1" as="geometry">
            <mxPoint x="343" y="1440" as="targetPoint" />
            <Array as="points">
              <mxPoint x="343" y="1660" />
              <mxPoint x="343" y="1440" />
            </Array>
          </mxGeometry>
        </mxCell>
        <mxCell id="jc_-JY6niaTybWbx3vFI-68" style="edgeStyle=orthogonalEdgeStyle;rounded=0;orthogonalLoop=1;jettySize=auto;html=1;entryX=0;entryY=0.5;entryDx=0;entryDy=0;" edge="1" parent="WIyWlLk6GJQsqaUBKTNV-1" source="jc_-JY6niaTybWbx3vFI-20" target="jc_-JY6niaTybWbx3vFI-9">
          <mxGeometry relative="1" as="geometry">
            <Array as="points">
              <mxPoint x="-210" y="1660" />
              <mxPoint x="-210" y="670" />
            </Array>
          </mxGeometry>
        </mxCell>
        <mxCell id="jc_-JY6niaTybWbx3vFI-20" value="Posledný fragment?" style="rhombus;whiteSpace=wrap;html=1;" vertex="1" parent="WIyWlLk6GJQsqaUBKTNV-1">
          <mxGeometry x="33" y="1620" width="80" height="80" as="geometry" />
        </mxCell>
        <mxCell id="jc_-JY6niaTybWbx3vFI-23" value="Počúvanie" style="rounded=0;whiteSpace=wrap;html=1;" vertex="1" parent="WIyWlLk6GJQsqaUBKTNV-1">
          <mxGeometry x="720" y="880" width="120" height="60" as="geometry" />
        </mxCell>
        <mxCell id="jc_-JY6niaTybWbx3vFI-24" value="Spracovanie fragmentu/ov" style="rounded=0;whiteSpace=wrap;html=1;" vertex="1" parent="WIyWlLk6GJQsqaUBKTNV-1">
          <mxGeometry x="720" y="990" width="120" height="60" as="geometry" />
        </mxCell>
        <mxCell id="jc_-JY6niaTybWbx3vFI-72" style="rounded=0;orthogonalLoop=1;jettySize=auto;html=1;entryX=1;entryY=0;entryDx=0;entryDy=0;" edge="1" parent="WIyWlLk6GJQsqaUBKTNV-1" source="jc_-JY6niaTybWbx3vFI-25" target="jc_-JY6niaTybWbx3vFI-69">
          <mxGeometry relative="1" as="geometry" />
        </mxCell>
        <mxCell id="jc_-JY6niaTybWbx3vFI-79" value="&lt;font style=&quot;font-size: 20px;&quot;&gt;Nie&lt;/font&gt;" style="edgeLabel;html=1;align=center;verticalAlign=middle;resizable=0;points=[];" vertex="1" connectable="0" parent="jc_-JY6niaTybWbx3vFI-72">
          <mxGeometry x="-0.1222" y="4" relative="1" as="geometry">
            <mxPoint x="-26" y="1" as="offset" />
          </mxGeometry>
        </mxCell>
        <mxCell id="jc_-JY6niaTybWbx3vFI-75" style="rounded=0;orthogonalLoop=1;jettySize=auto;html=1;entryX=0.5;entryY=0;entryDx=0;entryDy=0;" edge="1" parent="WIyWlLk6GJQsqaUBKTNV-1" source="jc_-JY6niaTybWbx3vFI-25" target="jc_-JY6niaTybWbx3vFI-71">
          <mxGeometry relative="1" as="geometry" />
        </mxCell>
        <mxCell id="jc_-JY6niaTybWbx3vFI-80" value="&lt;font style=&quot;font-size: 20px;&quot;&gt;Áno&lt;/font&gt;" style="edgeLabel;html=1;align=center;verticalAlign=middle;resizable=0;points=[];" vertex="1" connectable="0" parent="jc_-JY6niaTybWbx3vFI-75">
          <mxGeometry x="0.0354" y="-2" relative="1" as="geometry">
            <mxPoint x="26" as="offset" />
          </mxGeometry>
        </mxCell>
        <mxCell id="jc_-JY6niaTybWbx3vFI-25" value="CRC OK?" style="rhombus;whiteSpace=wrap;html=1;" vertex="1" parent="WIyWlLk6GJQsqaUBKTNV-1">
          <mxGeometry x="740" y="1140" width="80" height="80" as="geometry" />
        </mxCell>
        <mxCell id="jc_-JY6niaTybWbx3vFI-38" style="rounded=0;orthogonalLoop=1;jettySize=auto;html=1;entryX=0;entryY=0.25;entryDx=0;entryDy=0;exitX=1.021;exitY=0.112;exitDx=0;exitDy=0;exitPerimeter=0;" edge="1" parent="WIyWlLk6GJQsqaUBKTNV-1" source="jc_-JY6niaTybWbx3vFI-36" target="jc_-JY6niaTybWbx3vFI-37">
          <mxGeometry relative="1" as="geometry" />
        </mxCell>
        <mxCell id="jc_-JY6niaTybWbx3vFI-39" value="&lt;font style=&quot;font-size: 30px;&quot;&gt;SYN&lt;/font&gt;" style="edgeLabel;html=1;align=center;verticalAlign=middle;resizable=0;points=[];" vertex="1" connectable="0" parent="jc_-JY6niaTybWbx3vFI-38">
          <mxGeometry x="0.1877" y="-2" relative="1" as="geometry">
            <mxPoint x="-24" y="-39" as="offset" />
          </mxGeometry>
        </mxCell>
        <mxCell id="jc_-JY6niaTybWbx3vFI-42" style="rounded=0;orthogonalLoop=1;jettySize=auto;html=1;entryX=0;entryY=0.75;entryDx=0;entryDy=0;exitX=0.974;exitY=0.6;exitDx=0;exitDy=0;exitPerimeter=0;" edge="1" parent="WIyWlLk6GJQsqaUBKTNV-1" source="jc_-JY6niaTybWbx3vFI-36" target="jc_-JY6niaTybWbx3vFI-37">
          <mxGeometry relative="1" as="geometry" />
        </mxCell>
        <mxCell id="jc_-JY6niaTybWbx3vFI-43" value="&lt;font style=&quot;font-size: 30px;&quot;&gt;ACK&lt;/font&gt;" style="edgeLabel;html=1;align=center;verticalAlign=middle;resizable=0;points=[];" vertex="1" connectable="0" parent="jc_-JY6niaTybWbx3vFI-42">
          <mxGeometry x="-0.0296" y="1" relative="1" as="geometry">
            <mxPoint x="8" y="-20" as="offset" />
          </mxGeometry>
        </mxCell>
        <mxCell id="jc_-JY6niaTybWbx3vFI-45" style="rounded=0;orthogonalLoop=1;jettySize=auto;html=1;entryX=0;entryY=0;entryDx=0;entryDy=0;exitX=1;exitY=1;exitDx=0;exitDy=0;" edge="1" parent="WIyWlLk6GJQsqaUBKTNV-1" source="jc_-JY6niaTybWbx3vFI-36" target="jc_-JY6niaTybWbx3vFI-8">
          <mxGeometry relative="1" as="geometry" />
        </mxCell>
        <mxCell id="jc_-JY6niaTybWbx3vFI-36" value="User1" style="rounded=0;whiteSpace=wrap;html=1;" vertex="1" parent="WIyWlLk6GJQsqaUBKTNV-1">
          <mxGeometry x="150" y="230" width="120" height="240" as="geometry" />
        </mxCell>
        <mxCell id="jc_-JY6niaTybWbx3vFI-40" style="rounded=0;orthogonalLoop=1;jettySize=auto;html=1;exitX=-0.002;exitY=0.38;exitDx=0;exitDy=0;exitPerimeter=0;entryX=1;entryY=0.5;entryDx=0;entryDy=0;" edge="1" parent="WIyWlLk6GJQsqaUBKTNV-1" source="jc_-JY6niaTybWbx3vFI-37" target="jc_-JY6niaTybWbx3vFI-36">
          <mxGeometry relative="1" as="geometry">
            <mxPoint x="270" y="321" as="targetPoint" />
          </mxGeometry>
        </mxCell>
        <mxCell id="jc_-JY6niaTybWbx3vFI-41" value="&lt;font style=&quot;font-size: 30px;&quot;&gt;SYN ACK&lt;/font&gt;" style="edgeLabel;html=1;align=center;verticalAlign=middle;resizable=0;points=[];" vertex="1" connectable="0" parent="jc_-JY6niaTybWbx3vFI-40">
          <mxGeometry x="-0.1624" y="1" relative="1" as="geometry">
            <mxPoint x="-20" y="-24" as="offset" />
          </mxGeometry>
        </mxCell>
        <mxCell id="jc_-JY6niaTybWbx3vFI-44" style="rounded=0;orthogonalLoop=1;jettySize=auto;html=1;entryX=1;entryY=0;entryDx=0;entryDy=0;exitX=0;exitY=1;exitDx=0;exitDy=0;" edge="1" parent="WIyWlLk6GJQsqaUBKTNV-1" source="jc_-JY6niaTybWbx3vFI-37" target="jc_-JY6niaTybWbx3vFI-8">
          <mxGeometry relative="1" as="geometry" />
        </mxCell>
        <mxCell id="jc_-JY6niaTybWbx3vFI-37" value="User2" style="rounded=0;whiteSpace=wrap;html=1;" vertex="1" parent="WIyWlLk6GJQsqaUBKTNV-1">
          <mxGeometry x="540" y="230" width="120" height="240" as="geometry" />
        </mxCell>
        <mxCell id="jc_-JY6niaTybWbx3vFI-48" style="rounded=0;orthogonalLoop=1;jettySize=auto;html=1;entryX=0;entryY=0;entryDx=0;entryDy=0;exitX=1;exitY=1;exitDx=0;exitDy=0;" edge="1" parent="WIyWlLk6GJQsqaUBKTNV-1" source="jc_-JY6niaTybWbx3vFI-9" target="jc_-JY6niaTybWbx3vFI-11">
          <mxGeometry relative="1" as="geometry">
            <mxPoint x="367" y="710" as="sourcePoint" />
            <mxPoint x="273" y="760" as="targetPoint" />
          </mxGeometry>
        </mxCell>
        <mxCell id="jc_-JY6niaTybWbx3vFI-49" style="rounded=0;orthogonalLoop=1;jettySize=auto;html=1;entryX=0.5;entryY=0;entryDx=0;entryDy=0;exitX=0.5;exitY=1;exitDx=0;exitDy=0;" edge="1" parent="WIyWlLk6GJQsqaUBKTNV-1" source="jc_-JY6niaTybWbx3vFI-11" target="jc_-JY6niaTybWbx3vFI-23">
          <mxGeometry relative="1" as="geometry">
            <mxPoint x="613" y="720" as="sourcePoint" />
            <mxPoint x="730" y="770" as="targetPoint" />
          </mxGeometry>
        </mxCell>
        <mxCell id="jc_-JY6niaTybWbx3vFI-50" style="rounded=0;orthogonalLoop=1;jettySize=auto;html=1;entryX=0.5;entryY=0;entryDx=0;entryDy=0;exitX=0.5;exitY=1;exitDx=0;exitDy=0;" edge="1" parent="WIyWlLk6GJQsqaUBKTNV-1" source="jc_-JY6niaTybWbx3vFI-23" target="jc_-JY6niaTybWbx3vFI-24">
          <mxGeometry relative="1" as="geometry">
            <mxPoint x="790" y="830" as="sourcePoint" />
            <mxPoint x="790" y="890" as="targetPoint" />
          </mxGeometry>
        </mxCell>
        <mxCell id="jc_-JY6niaTybWbx3vFI-53" style="rounded=0;orthogonalLoop=1;jettySize=auto;html=1;entryX=0.5;entryY=0;entryDx=0;entryDy=0;exitX=0.5;exitY=1;exitDx=0;exitDy=0;" edge="1" parent="WIyWlLk6GJQsqaUBKTNV-1" source="jc_-JY6niaTybWbx3vFI-24" target="jc_-JY6niaTybWbx3vFI-25">
          <mxGeometry relative="1" as="geometry">
            <mxPoint x="790" y="950" as="sourcePoint" />
            <mxPoint x="790" y="1000" as="targetPoint" />
          </mxGeometry>
        </mxCell>
        <mxCell id="jc_-JY6niaTybWbx3vFI-54" style="rounded=0;orthogonalLoop=1;jettySize=auto;html=1;entryX=1;entryY=0;entryDx=0;entryDy=0;exitX=0;exitY=1;exitDx=0;exitDy=0;" edge="1" parent="WIyWlLk6GJQsqaUBKTNV-1" source="jc_-JY6niaTybWbx3vFI-10" target="jc_-JY6niaTybWbx3vFI-12">
          <mxGeometry relative="1" as="geometry">
            <mxPoint x="237" y="710" as="sourcePoint" />
            <mxPoint x="143" y="760" as="targetPoint" />
          </mxGeometry>
        </mxCell>
        <mxCell id="jc_-JY6niaTybWbx3vFI-55" style="rounded=0;orthogonalLoop=1;jettySize=auto;html=1;entryX=0;entryY=0;entryDx=0;entryDy=0;exitX=1;exitY=1;exitDx=0;exitDy=0;" edge="1" parent="WIyWlLk6GJQsqaUBKTNV-1" source="jc_-JY6niaTybWbx3vFI-10" target="jc_-JY6niaTybWbx3vFI-14">
          <mxGeometry relative="1" as="geometry">
            <mxPoint x="23" y="820" as="sourcePoint" />
            <mxPoint x="-7" y="880" as="targetPoint" />
          </mxGeometry>
        </mxCell>
        <mxCell id="jc_-JY6niaTybWbx3vFI-56" style="rounded=0;orthogonalLoop=1;jettySize=auto;html=1;entryX=0.5;entryY=0;entryDx=0;entryDy=0;exitX=0;exitY=1;exitDx=0;exitDy=0;" edge="1" parent="WIyWlLk6GJQsqaUBKTNV-1" source="jc_-JY6niaTybWbx3vFI-14" target="jc_-JY6niaTybWbx3vFI-15">
          <mxGeometry relative="1" as="geometry">
            <mxPoint x="143" y="820" as="sourcePoint" />
            <mxPoint x="173" y="880" as="targetPoint" />
          </mxGeometry>
        </mxCell>
        <mxCell id="jc_-JY6niaTybWbx3vFI-57" style="rounded=0;orthogonalLoop=1;jettySize=auto;html=1;entryX=0.5;entryY=0;entryDx=0;entryDy=0;exitX=1;exitY=1;exitDx=0;exitDy=0;" edge="1" parent="WIyWlLk6GJQsqaUBKTNV-1" source="jc_-JY6niaTybWbx3vFI-12" target="jc_-JY6niaTybWbx3vFI-15">
          <mxGeometry relative="1" as="geometry">
            <mxPoint x="23" y="820" as="sourcePoint" />
            <mxPoint x="-7" y="880" as="targetPoint" />
          </mxGeometry>
        </mxCell>
        <mxCell id="jc_-JY6niaTybWbx3vFI-60" style="rounded=0;orthogonalLoop=1;jettySize=auto;html=1;entryX=0;entryY=0;entryDx=0;entryDy=0;exitX=1;exitY=1;exitDx=0;exitDy=0;" edge="1" parent="WIyWlLk6GJQsqaUBKTNV-1" source="jc_-JY6niaTybWbx3vFI-15" target="jc_-JY6niaTybWbx3vFI-16">
          <mxGeometry relative="1" as="geometry">
            <mxPoint x="83" y="1090" as="sourcePoint" />
            <mxPoint x="83" y="1280" as="targetPoint" />
          </mxGeometry>
        </mxCell>
        <mxCell id="jc_-JY6niaTybWbx3vFI-61" value="&lt;span style=&quot;font-size: 20px;&quot;&gt;Áno&lt;/span&gt;" style="edgeLabel;html=1;align=center;verticalAlign=middle;resizable=0;points=[];" vertex="1" connectable="0" parent="jc_-JY6niaTybWbx3vFI-60">
          <mxGeometry x="-0.2662" y="1" relative="1" as="geometry">
            <mxPoint x="37" y="5" as="offset" />
          </mxGeometry>
        </mxCell>
        <mxCell id="jc_-JY6niaTybWbx3vFI-62" style="rounded=0;orthogonalLoop=1;jettySize=auto;html=1;entryX=0.5;entryY=0;entryDx=0;entryDy=0;exitX=0.5;exitY=1;exitDx=0;exitDy=0;" edge="1" parent="WIyWlLk6GJQsqaUBKTNV-1" source="jc_-JY6niaTybWbx3vFI-17" target="jc_-JY6niaTybWbx3vFI-18">
          <mxGeometry relative="1" as="geometry">
            <mxPoint x="108" y="1065" as="sourcePoint" />
            <mxPoint x="173" y="1150" as="targetPoint" />
          </mxGeometry>
        </mxCell>
        <mxCell id="jc_-JY6niaTybWbx3vFI-63" value="&lt;font style=&quot;font-size: 20px;&quot;&gt;Nie&lt;/font&gt;" style="edgeLabel;html=1;align=center;verticalAlign=middle;resizable=0;points=[];" vertex="1" connectable="0" parent="jc_-JY6niaTybWbx3vFI-62">
          <mxGeometry x="-0.2662" y="1" relative="1" as="geometry">
            <mxPoint x="-24" y="19" as="offset" />
          </mxGeometry>
        </mxCell>
        <mxCell id="jc_-JY6niaTybWbx3vFI-64" style="rounded=0;orthogonalLoop=1;jettySize=auto;html=1;entryX=0;entryY=0;entryDx=0;entryDy=0;exitX=1;exitY=1;exitDx=0;exitDy=0;" edge="1" parent="WIyWlLk6GJQsqaUBKTNV-1" source="jc_-JY6niaTybWbx3vFI-18" target="jc_-JY6niaTybWbx3vFI-19">
          <mxGeometry relative="1" as="geometry">
            <mxPoint x="83" y="1340" as="sourcePoint" />
            <mxPoint x="83" y="1410" as="targetPoint" />
          </mxGeometry>
        </mxCell>
        <mxCell id="jc_-JY6niaTybWbx3vFI-65" value="&lt;font style=&quot;font-size: 20px;&quot;&gt;Nie&lt;/font&gt;" style="edgeLabel;html=1;align=center;verticalAlign=middle;resizable=0;points=[];" vertex="1" connectable="0" parent="jc_-JY6niaTybWbx3vFI-64">
          <mxGeometry x="-0.2662" y="1" relative="1" as="geometry">
            <mxPoint x="-7" y="19" as="offset" />
          </mxGeometry>
        </mxCell>
        <mxCell id="jc_-JY6niaTybWbx3vFI-77" style="edgeStyle=orthogonalEdgeStyle;rounded=0;orthogonalLoop=1;jettySize=auto;html=1;endArrow=none;endFill=0;" edge="1" parent="WIyWlLk6GJQsqaUBKTNV-1" source="jc_-JY6niaTybWbx3vFI-69">
          <mxGeometry relative="1" as="geometry">
            <mxPoint x="670" y="1180" as="targetPoint" />
          </mxGeometry>
        </mxCell>
        <mxCell id="jc_-JY6niaTybWbx3vFI-69" value="ARQ metóda a vyžiadanie" style="rounded=0;whiteSpace=wrap;html=1;" vertex="1" parent="WIyWlLk6GJQsqaUBKTNV-1">
          <mxGeometry x="610" y="1320" width="120" height="60" as="geometry" />
        </mxCell>
        <mxCell id="jc_-JY6niaTybWbx3vFI-76" style="edgeStyle=orthogonalEdgeStyle;rounded=0;orthogonalLoop=1;jettySize=auto;html=1;entryX=0;entryY=0.5;entryDx=0;entryDy=0;" edge="1" parent="WIyWlLk6GJQsqaUBKTNV-1" source="jc_-JY6niaTybWbx3vFI-71" target="jc_-JY6niaTybWbx3vFI-25">
          <mxGeometry relative="1" as="geometry">
            <Array as="points">
              <mxPoint x="560" y="1530" />
              <mxPoint x="560" y="1180" />
            </Array>
          </mxGeometry>
        </mxCell>
        <mxCell id="jc_-JY6niaTybWbx3vFI-84" value="&lt;font style=&quot;font-size: 20px;&quot;&gt;Nie&lt;/font&gt;" style="edgeLabel;html=1;align=center;verticalAlign=middle;resizable=0;points=[];" vertex="1" connectable="0" parent="jc_-JY6niaTybWbx3vFI-76">
          <mxGeometry x="-0.8637" relative="1" as="geometry">
            <mxPoint x="-12" y="-20" as="offset" />
          </mxGeometry>
        </mxCell>
        <mxCell id="jc_-JY6niaTybWbx3vFI-82" style="edgeStyle=orthogonalEdgeStyle;rounded=0;orthogonalLoop=1;jettySize=auto;html=1;entryX=0;entryY=0.5;entryDx=0;entryDy=0;" edge="1" parent="WIyWlLk6GJQsqaUBKTNV-1" source="jc_-JY6niaTybWbx3vFI-71" target="jc_-JY6niaTybWbx3vFI-70">
          <mxGeometry relative="1" as="geometry" />
        </mxCell>
        <mxCell id="jc_-JY6niaTybWbx3vFI-85" value="&lt;font style=&quot;font-size: 20px;&quot;&gt;Áno&lt;/font&gt;" style="edgeLabel;html=1;align=center;verticalAlign=middle;resizable=0;points=[];" vertex="1" connectable="0" parent="jc_-JY6niaTybWbx3vFI-82">
          <mxGeometry x="-0.2664" y="1" relative="1" as="geometry">
            <mxPoint x="12" y="-19" as="offset" />
          </mxGeometry>
        </mxCell>
        <mxCell id="jc_-JY6niaTybWbx3vFI-71" value="Posledný fragment?" style="rhombus;whiteSpace=wrap;html=1;" vertex="1" parent="WIyWlLk6GJQsqaUBKTNV-1">
          <mxGeometry x="740" y="1490" width="80" height="80" as="geometry" />
        </mxCell>
        <mxCell id="jc_-JY6niaTybWbx3vFI-83" style="edgeStyle=orthogonalEdgeStyle;rounded=0;orthogonalLoop=1;jettySize=auto;html=1;entryX=1;entryY=0.5;entryDx=0;entryDy=0;" edge="1" parent="WIyWlLk6GJQsqaUBKTNV-1" source="jc_-JY6niaTybWbx3vFI-70" target="jc_-JY6niaTybWbx3vFI-9">
          <mxGeometry relative="1" as="geometry">
            <Array as="points">
              <mxPoint x="1010" y="680" />
            </Array>
          </mxGeometry>
        </mxCell>
        <mxCell id="jc_-JY6niaTybWbx3vFI-70" value="ACK" style="rounded=0;whiteSpace=wrap;html=1;" vertex="1" parent="WIyWlLk6GJQsqaUBKTNV-1">
          <mxGeometry x="950" y="1500" width="120" height="60" as="geometry" />
        </mxCell>
      </root>
    </mxGraphModel>
  </diagram>
</mxfile>
